<?xml version="1.0" encoding="UTF-8"?>
<svg xmlns="http://www.w3.org/2000/svg" width="341.927" height="99.606" viewBox="0 0 341.927 99.606">
  <g transform="translate(0 0.01)">
    <path d="M78.9,71.178c-3.336,8.084-7.919,15.5-14.264,20.05a6.8,6.8,0,0,1-2.013.766,5.98,5.98,0,0,1-1.291.142c-2.33,0-5.338-1.422-7.11-7.854,0,0-.755-3.369-1.914-6.946-.153-.47-.306-.93-.47-1.4a25.993,25.993,0,0,0-2.3-5.13A2.129,2.129,0,0,0,47.987,70a.927.927,0,0,0-.23.022h-.077a3.53,3.53,0,0,0-2.658,1.761c-2.308,4.408-4.113,12.5-4.113,12.5-1.772,6.432-4.78,7.854-7.11,7.854a6.524,6.524,0,0,1-1.444-.175,6.659,6.659,0,0,1-1.86-.733c-8.2-5.9-13.5-16.583-16.9-27.292A145.531,145.531,0,0,1,7.635,31.613C6.388,14.855,12.6,9.638,17.556,8.1a13.894,13.894,0,0,1,4.08-.613,9.671,9.671,0,0,1,1.619.109c8.116,0,15.762,4.485,19.427,7-.2.186-.383.372-.58.558a43.877,43.877,0,0,1-6.5,4.857,26.78,26.78,0,0,1-7.449,3.183,18.462,18.462,0,0,1-4.189.525,11.423,11.423,0,0,1-3.993-.667,14.593,14.593,0,0,0,7.723,1.86h.689a29.294,29.294,0,0,0,8.685-1.761,48.723,48.723,0,0,0,8.062-3.774c.088-.044.164-.109.241-.153,1.192-.7,2.374-1.433,3.533-2.21.416-.241.831-.492,1.258-.766,0,0,.131-.109.35-.273,1.838-1.444,11.234-8.412,21.363-8.412a10.413,10.413,0,0,1,1.63-.109,13.988,13.988,0,0,1,4.036.6c3.938,1.214,8.674,4.769,9.834,14.581H94.9C93.426,7.581,85.134,2.582,79.731.92a21.285,21.285,0,0,0-6.224-.93h0a18.01,18.01,0,0,0-2.155.12C60.96.3,51.761,5.875,47.539,8.894c-.2-.164-.394-.317-.613-.47C42.485,5.383,33.636.3,23.78.121a21.441,21.441,0,0,0-8.445.831C8.959,2.932-1.477,9.616.175,32.084a153.16,153.16,0,0,0,6.3,34.106c4.638,14.6,11.256,25.06,19.657,31.1.12.088.241.164.361.241a14,14,0,0,0,4.146,1.7A13.494,13.494,0,0,0,33.8,99.6c3.041,0,10.217-1.17,13.772-11.573C51.127,98.426,58.3,99.6,61.332,99.6a13.237,13.237,0,0,0,2.844-.306A14.154,14.154,0,0,0,68.6,97.551l.394-.263c7.416-5.327,13.443-14.1,17.939-26.121H78.9Z" transform="translate(0 0)" fill="#35b6b2"></path>
    <g transform="translate(101.247 71.178)">
      <path d="M104.964,74.754h-2.319a8.679,8.679,0,0,0-.044-1.017.835.835,0,0,0-.383-.623,2.328,2.328,0,0,0-1.006-.306,13.658,13.658,0,0,0-1.652-.088h-.93q-1.181,0-1.9.066a2.79,2.79,0,0,0-1.225.383c-.339.208-.5.788-.5,1.75a2.351,2.351,0,0,0,.481,1.717,2.315,2.315,0,0,0,1.378.427c.263,0,.755.022,1.477.055s1.138.055,1.225.055c2.242,0,3.763.317,4.572.963a4.127,4.127,0,0,1,1.214,3.413,4.108,4.108,0,0,1-1.2,3.282c-.809.7-2.516,1.061-5.152,1.061a14.117,14.117,0,0,1-4.179-.448,2.983,2.983,0,0,1-2.253-3.019V81.043h2.308V81.6A4.292,4.292,0,0,0,95,82.925a1.018,1.018,0,0,0,.47.536,5.361,5.361,0,0,0,2.056.427c.886.033,1.641.055,2.253.055a5.123,5.123,0,0,0,2.374-.394,2.018,2.018,0,0,0,.875-1.9,2.739,2.739,0,0,0-.5-1.9,1.593,1.593,0,0,0-.963-.4c-.416-.044-1.116-.066-2.111-.066-2.877,0-4.715-.339-5.513-1.028a4.213,4.213,0,0,1-1.2-3.358c0-1.87.634-3.085,1.892-3.653a11.2,11.2,0,0,1,4-.481,26.7,26.7,0,0,1,2.975.131,4.7,4.7,0,0,1,1.9.6,2.72,2.72,0,0,1,1.116,1.225,5.218,5.218,0,0,1,.328,2.046Z" transform="translate(-92.56 -64.537)" fill="#35b6b2"></path>
      <path d="M112.737,81.556V73.013H110.79v-1.8h1.947V67.62h2.253v3.588h5.732v1.8H114.99v9.079a2.716,2.716,0,0,0,.481,1.947,3.03,3.03,0,0,0,1.5.372q1.69,0,2.035-.984a5.191,5.191,0,0,0,.175-1.52V80.779h2.089v.733a5.651,5.651,0,0,1-.766,3.358,2.819,2.819,0,0,1-1.411,1.017,6.7,6.7,0,0,1-2.177.306,9.046,9.046,0,0,1-1.969-.175,2.591,2.591,0,0,1-1.324-.7,2.643,2.643,0,0,1-.7-1.455,13.269,13.269,0,0,1-.175-2.3Z" transform="translate(-90.849 -64.831)" fill="#35b6b2"></path>
      <path d="M133.56,70.74a20.551,20.551,0,0,1,3.216.175,4.232,4.232,0,0,1,2.4,1.1,4.944,4.944,0,0,1,1.214,2.877,28.052,28.052,0,0,1,.164,3.61,23.643,23.643,0,0,1-.164,3.413,4.885,4.885,0,0,1-1.378,2.877,4.765,4.765,0,0,1-2.516.963,21.283,21.283,0,0,1-2.855.142,10.439,10.439,0,0,1-3.621-.448,3.419,3.419,0,0,1-1.619-1.258,5.76,5.76,0,0,1-.777-2.242,18.461,18.461,0,0,1-.241-3.107c0-1.7.055-3.019.153-3.993a4.78,4.78,0,0,1,.9-2.439,4.007,4.007,0,0,1,2.275-1.378,11.663,11.663,0,0,1,2.855-.284Zm.372,1.8h-.7a6.058,6.058,0,0,0-1.816.2,2.1,2.1,0,0,0-.941.623,3.081,3.081,0,0,0-.645,1.6,17.893,17.893,0,0,0-.164,2.669v1.444a16.344,16.344,0,0,0,.153,2.691,3.956,3.956,0,0,0,.492,1.313,2.789,2.789,0,0,0,2.177.984c.361.033.886.055,1.575.055a13.821,13.821,0,0,0,1.86-.088,2.488,2.488,0,0,0,1.553-.7,3.346,3.346,0,0,0,.624-1.553,13.934,13.934,0,0,0,.175-2.4v-1.1c0-1.236-.033-2.253-.109-3.052a3.317,3.317,0,0,0-.591-1.772,2.167,2.167,0,0,0-1.411-.744,14.225,14.225,0,0,0-2.2-.153Z" transform="translate(-89.292 -64.538)" fill="#35b6b2"></path>
      <path d="M149.682,73.223a3.816,3.816,0,0,1,2.155-2,8.087,8.087,0,0,1,5.863.142,2.781,2.781,0,0,1,1.586,1.86,4.187,4.187,0,0,1,2.286-2,8.108,8.108,0,0,1,2.91-.481c2.035,0,3.446.492,4.255,1.466a5.724,5.724,0,0,1,.984,3.7v9.812h-2.253V76.176a4.685,4.685,0,0,0-.634-2.91,3.356,3.356,0,0,0-2.56-.733c-1.849,0-3.1.35-3.741,1.039a4,4,0,0,0-.853,2.822V85.7h-2.2V75.892a4.083,4.083,0,0,0-.624-2.691,3.956,3.956,0,0,0-2.746-.667,4.792,4.792,0,0,0-3.085.82,4.227,4.227,0,0,0-1.335,3.522V85.7H147.44V70.893h2.253V73.2Z" transform="translate(-87.409 -64.538)" fill="#35b6b2"></path>
      <path d="M186.208,84.226v-.055a2.885,2.885,0,0,1-1.838,1.444,10.266,10.266,0,0,1-2.735.284c-2.2,0-3.73-.306-4.594-.908-.941-.656-1.411-1.849-1.411-3.555v-.394c0-1.75.525-2.921,1.575-3.522a9.945,9.945,0,0,1,4.485-.7h.372a12.972,12.972,0,0,1,2.253.2,4.029,4.029,0,0,1,1.2.492,1.147,1.147,0,0,1,.525.777h.164V75.661a4.028,4.028,0,0,0-.284-1.717,1.845,1.845,0,0,0-1.159-1.061,7.645,7.645,0,0,0-2.549-.328h-.481a5.687,5.687,0,0,0-2.352.372A1.792,1.792,0,0,0,178.31,74.7v.394h-2.253a5.981,5.981,0,0,1,.35-2.242,3.159,3.159,0,0,1,1.028-1.335,4.969,4.969,0,0,1,2.078-.623,23.818,23.818,0,0,1,2.669-.142,16.071,16.071,0,0,1,3.107.252,4.07,4.07,0,0,1,1.969.963,3.527,3.527,0,0,1,.875,1.553,7.959,7.959,0,0,1,.284,2.231v9.987h-2.2v-1.5ZM178.43,79.26a2.6,2.6,0,0,0-.383,1.269,5.619,5.619,0,0,1-.153,1.072,5.794,5.794,0,0,0,.142.842,2.911,2.911,0,0,0,.317.733,1.63,1.63,0,0,0,1.094.766,12.04,12.04,0,0,0,2.341.164,11.391,11.391,0,0,0,2.571-.23A2.416,2.416,0,0,0,185.77,83a2.486,2.486,0,0,0,.328-.744,4.371,4.371,0,0,0,.131-1.17,2.147,2.147,0,0,0-1.51-2.2,9.22,9.22,0,0,0-2.986-.339,15.186,15.186,0,0,0-2.155.109,1.77,1.77,0,0,0-1.138.591Z" transform="translate(-84.764 -64.537)" fill="#35b6b2"></path>
      <path d="M196.237,81.556V73.013H194.29v-1.8h1.947V67.62h2.253v3.588h5.732v1.8H198.49v9.079a2.716,2.716,0,0,0,.481,1.947,3.03,3.03,0,0,0,1.5.372q1.69,0,2.035-.984a5.191,5.191,0,0,0,.175-1.52V80.779h2.089v.733A5.651,5.651,0,0,1,204,84.87a2.819,2.819,0,0,1-1.411,1.017,6.7,6.7,0,0,1-2.177.306,9.046,9.046,0,0,1-1.969-.175,2.591,2.591,0,0,1-1.324-.7,2.643,2.643,0,0,1-.7-1.455,13.268,13.268,0,0,1-.175-2.3Z" transform="translate(-83.012 -64.831)" fill="#35b6b2"></path>
      <path d="M217.06,70.74a20.551,20.551,0,0,1,3.216.175,4.232,4.232,0,0,1,2.4,1.1,4.944,4.944,0,0,1,1.214,2.877,28.049,28.049,0,0,1,.164,3.61,23.643,23.643,0,0,1-.164,3.413,4.885,4.885,0,0,1-1.378,2.877,4.765,4.765,0,0,1-2.516.963,21.283,21.283,0,0,1-2.855.142,10.439,10.439,0,0,1-3.621-.448,3.419,3.419,0,0,1-1.619-1.258,5.76,5.76,0,0,1-.777-2.242,18.461,18.461,0,0,1-.241-3.107c0-1.7.055-3.019.153-3.993a4.78,4.78,0,0,1,.9-2.439,4.007,4.007,0,0,1,2.275-1.378,11.663,11.663,0,0,1,2.855-.284Zm.372,1.8h-.7a6.058,6.058,0,0,0-1.816.2,2.1,2.1,0,0,0-.941.623,3.081,3.081,0,0,0-.645,1.6,17.893,17.893,0,0,0-.164,2.669v1.444a16.344,16.344,0,0,0,.153,2.691,3.956,3.956,0,0,0,.492,1.313,2.789,2.789,0,0,0,2.177.984c.361.033.886.055,1.575.055a13.821,13.821,0,0,0,1.86-.088,2.488,2.488,0,0,0,1.553-.7,3.347,3.347,0,0,0,.623-1.553,13.934,13.934,0,0,0,.175-2.4v-1.1c0-1.236-.033-2.253-.109-3.052a3.317,3.317,0,0,0-.591-1.772,2.167,2.167,0,0,0-1.411-.744,14.225,14.225,0,0,0-2.2-.153Z" transform="translate(-81.455 -64.538)" fill="#35b6b2"></path>
      <path d="M230.97,65.07h2.253V86.258H230.97Z" transform="translate(-79.57 -65.07)" fill="#35b6b2"></path>
      <path d="M247.29,71.236a20.552,20.552,0,0,1,3.216.175,4.232,4.232,0,0,1,2.4,1.1,4.944,4.944,0,0,1,1.214,2.877A28.05,28.05,0,0,1,254.28,79a23.644,23.644,0,0,1-.164,3.413,4.885,4.885,0,0,1-1.378,2.877,4.765,4.765,0,0,1-2.516.963,21.283,21.283,0,0,1-2.855.142,10.439,10.439,0,0,1-3.621-.448,3.419,3.419,0,0,1-1.619-1.258,5.761,5.761,0,0,1-.777-2.242,18.462,18.462,0,0,1-.241-3.107c0-1.7.055-3.019.153-3.993a4.779,4.779,0,0,1,.9-2.439,4.007,4.007,0,0,1,2.275-1.378,11.663,11.663,0,0,1,2.855-.284Zm.372,1.8h-.7a6.058,6.058,0,0,0-1.816.2,2.1,2.1,0,0,0-.941.623,3.081,3.081,0,0,0-.645,1.6,17.9,17.9,0,0,0-.164,2.669v1.444a16.344,16.344,0,0,0,.153,2.691,3.956,3.956,0,0,0,.492,1.313,2.789,2.789,0,0,0,2.177.984c.361.033.886.055,1.575.055a13.821,13.821,0,0,0,1.86-.088,2.488,2.488,0,0,0,1.553-.7,3.347,3.347,0,0,0,.623-1.553,13.934,13.934,0,0,0,.175-2.4v-1.1c0-1.236-.033-2.253-.109-3.052a3.317,3.317,0,0,0-.591-1.772,2.167,2.167,0,0,0-1.411-.744,14.225,14.225,0,0,0-2.2-.153Zm-1.838-4.386,4.211-3.194,1.1,1.51-4.507,2.855-.8-1.159Z" transform="translate(-78.618 -65.033)" fill="#35b6b2"></path>
      <path d="M271.537,70.915h2.2V87.334a4.41,4.41,0,0,1-1.5,3.719,5.144,5.144,0,0,1-2.341,1.039,13.643,13.643,0,0,1-2.735.23,14.385,14.385,0,0,1-2.4-.142,4.6,4.6,0,0,1-2.286-.963,3.394,3.394,0,0,1-.93-1.422,5.3,5.3,0,0,1-.339-1.881v-.427h2.253a5.086,5.086,0,0,0,.186,1.466,1.838,1.838,0,0,0,.624.941,2.685,2.685,0,0,0,1.236.481,11.31,11.31,0,0,0,1.816.131,10.731,10.731,0,0,0,2.133-.153,2.494,2.494,0,0,0,1.094-.525,1.97,1.97,0,0,0,.777-1.116,5.934,5.934,0,0,0,.208-1.674V83.91a2.846,2.846,0,0,1-2.013,1.663,9.74,9.74,0,0,1-2.746.306,9.626,9.626,0,0,1-2.527-.306,4.114,4.114,0,0,1-2.013-1.181,5.665,5.665,0,0,1-1.094-2.45,17.311,17.311,0,0,1-.3-3.391v-.733a13.988,13.988,0,0,1,.383-3.468,4.721,4.721,0,0,1,1.094-2.177,4.368,4.368,0,0,1,2.046-1.127,10.207,10.207,0,0,1,2.538-.306,7.432,7.432,0,0,1,3,.448,3.93,3.93,0,0,1,1.641,1.641V70.915Zm-8.379,6.716v1.8a12.661,12.661,0,0,0,.153,2.089,3.59,3.59,0,0,0,.547,1.444,2.259,2.259,0,0,0,1.52.908c.634.1,1.269.175,1.892.252a7.007,7.007,0,0,0,1.892-.241,3.2,3.2,0,0,0,1.455-.831,2.938,2.938,0,0,0,.744-1.641,16.511,16.511,0,0,0,.164-2.516V77.861q0-1.411-.066-2.133a4.512,4.512,0,0,0-.273-1.225,2.54,2.54,0,0,0-1.389-1.542,6.823,6.823,0,0,0-2.614-.4,8.44,8.44,0,0,0-1.947.175,2.382,2.382,0,0,0-1.247.744,2.839,2.839,0,0,0-.678,1.5,17.879,17.879,0,0,0-.153,2.669Z" transform="translate(-76.766 -64.538)" fill="#35b6b2"></path>
      <path d="M280.94,65.07h2.253v2.483H280.94Zm0,6.377h2.253V86.258H280.94Z" transform="translate(-74.88 -65.07)" fill="#35b6b2"></path>
      <path d="M301.508,84.226v-.055a2.886,2.886,0,0,1-1.838,1.444,10.266,10.266,0,0,1-2.735.284c-2.2,0-3.73-.306-4.594-.908-.941-.656-1.411-1.849-1.411-3.555v-.394c0-1.75.525-2.921,1.575-3.522a9.945,9.945,0,0,1,4.485-.7h.372a12.972,12.972,0,0,1,2.253.2,4.03,4.03,0,0,1,1.2.492,1.148,1.148,0,0,1,.525.777h.164V75.661a4.028,4.028,0,0,0-.284-1.717,1.845,1.845,0,0,0-1.159-1.061,7.645,7.645,0,0,0-2.549-.328h-.481a5.687,5.687,0,0,0-2.352.372A1.792,1.792,0,0,0,293.61,74.7v.394h-2.253a5.981,5.981,0,0,1,.35-2.242,3.159,3.159,0,0,1,1.028-1.335,4.97,4.97,0,0,1,2.078-.623,23.819,23.819,0,0,1,2.669-.142,16.071,16.071,0,0,1,3.107.252,4.07,4.07,0,0,1,1.969.963,3.528,3.528,0,0,1,.875,1.553,7.958,7.958,0,0,1,.284,2.231v9.987h-2.2v-1.5ZM293.73,79.26a2.6,2.6,0,0,0-.383,1.269,5.617,5.617,0,0,1-.153,1.072,5.789,5.789,0,0,0,.142.842,2.91,2.91,0,0,0,.317.733,1.63,1.63,0,0,0,1.094.766,12.04,12.04,0,0,0,2.341.164,11.391,11.391,0,0,0,2.571-.23A2.416,2.416,0,0,0,301.07,83a2.485,2.485,0,0,0,.328-.744,4.372,4.372,0,0,0,.131-1.17,2.147,2.147,0,0,0-1.51-2.2,9.22,9.22,0,0,0-2.986-.339,15.186,15.186,0,0,0-2.155.109,1.77,1.77,0,0,0-1.138.591Z" transform="translate(-73.943 -64.537)" fill="#35b6b2"></path>
    </g>
    <g transform="translate(38.766 28.463)">
      <path d="M35.44,26.02h7.143V41.093H59.822V26.02H66.91V62.9H59.822V47.142H42.583V62.9H35.44V26.02Z" transform="translate(-35.44 -26.02)" fill="#107680"></path>
      <path d="M79.237,26.02H89.628L102.23,62.9H94.988l-2.363-6.946h-16L74.26,62.9H66.92L75.386,37.33l3.839-11.31ZM78.2,50.588H90.952L84.6,31.38Z" transform="translate(-32.486 -26.02)" fill="#107680"></path>
      <path d="M108.778,50.993V62.9H101.69V26.02h16.156a28.388,28.388,0,0,1,6.694.591,7.771,7.771,0,0,1,5.316,3.828,13.915,13.915,0,0,1,1.061,3.763,32.8,32.8,0,0,1,.273,4.3,24.259,24.259,0,0,1-.591,6.147,9.4,9.4,0,0,1-1.728,3.489,7.263,7.263,0,0,1-3.741,2.111,20.381,20.381,0,0,1-5.568.733H108.778Zm0-6.06h8.959a19.181,19.181,0,0,0,3.074-.219,3.772,3.772,0,0,0,1.892-.755,3.542,3.542,0,0,0,1.225-1.86,15.707,15.707,0,0,0,.241-3.282,23.359,23.359,0,0,0-.142-3.041,5.141,5.141,0,0,0-.689-1.936,3.149,3.149,0,0,0-1.827-1.324,12.313,12.313,0,0,0-3.6-.416h-9.156V44.955Z" transform="translate(-29.222 -26.02)" fill="#107680"></path>
      <path d="M138.988,50.993V62.9H131.9V26.02h16.156a28.388,28.388,0,0,1,6.694.591,7.771,7.771,0,0,1,5.316,3.828,13.916,13.916,0,0,1,1.061,3.763,32.8,32.8,0,0,1,.273,4.3,24.26,24.26,0,0,1-.591,6.147,9.4,9.4,0,0,1-1.728,3.489,7.263,7.263,0,0,1-3.741,2.111,20.381,20.381,0,0,1-5.568.733H138.988Zm0-6.06h8.959a19.182,19.182,0,0,0,3.074-.219,3.772,3.772,0,0,0,1.892-.755,3.542,3.542,0,0,0,1.225-1.86,15.706,15.706,0,0,0,.241-3.282,23.356,23.356,0,0,0-.142-3.041,5.141,5.141,0,0,0-.689-1.936,3.15,3.15,0,0,0-1.827-1.324,12.313,12.313,0,0,0-3.6-.416h-9.156V44.955Z" transform="translate(-26.387 -26.02)" fill="#107680"></path>
      <path d="M172.47,62.9V48.794L159.07,26.02h8.073L175.9,41.728h.2L185.06,26.02h8.171L179.547,48.794V62.9h-7.088Z" transform="translate(-23.837 -26.02)" fill="#107680"></path>
      <path d="M211.4,62.9H192.19V26.02h17.775a21.542,21.542,0,0,1,8.029,1.28,9.088,9.088,0,0,1,4.682,3.982,13.136,13.136,0,0,1,1.28,3.883,28.012,28.012,0,0,1,.448,5.163v7.865a22.736,22.736,0,0,1-1.039,7.427,10.422,10.422,0,0,1-4.529,5.655,12.637,12.637,0,0,1-3.424,1.159A19.055,19.055,0,0,1,211.4,62.9Zm-1.422-6.06a10.333,10.333,0,0,0,3.3-.394,5.369,5.369,0,0,0,2.56-2.111,7.187,7.187,0,0,0,1.039-2.5,20.45,20.45,0,0,0,.394-4.572v-6.64c0-3.172-.361-5.294-1.083-6.344q-1.526-2.215-6.694-2.21H199.3V56.834h10.687Z" transform="translate(-20.729 -26.02)" fill="#107680"></path>
      <path d="M225.09,62.9V26.02h25.355v6.06H232.178v9.21h17.338v5.765H232.178v9.8h18.366v6.06H225.09Z" transform="translate(-17.641 -26.02)" fill="#107680"></path>
      <path d="M252.1,26.02h11.77l15.861,30.825h.2l-.591-30.825h7.143V62.9H274.611L258.948,32.08h-.3l.394,15.292.2,15.533H252.1V26.02Z" transform="translate(-15.106 -26.02)" fill="#107680"></path>
      <path d="M297.085,62.9V32.08H286.3V26.02h28.757v6.06H304.174V62.9Z" transform="translate(-11.896 -26.02)" fill="#107680"></path>
    </g>
  </g>
</svg>
